<?xml version="1.0" encoding="UTF-8"?>
<svg id="uuid-56496741-a187-45c5-819e-c40146eaed7e" data-name="Layer 1" xmlns="http://www.w3.org/2000/svg" viewBox="0 0 5000 5000">
  <defs>
    <style>
      .uuid-5dddadf3-c6bc-466d-9d1f-1a6ac9e831da {
        fill: #ed1c24;
      }

      .uuid-5dddadf3-c6bc-466d-9d1f-1a6ac9e831da, .uuid-559c8128-e4bf-48a1-9d97-c750c09c1ad2 {
        stroke-width: 0px;
      }

      .uuid-559c8128-e4bf-48a1-9d97-c750c09c1ad2 {
        fill: #fff;
      }
    </style>
  </defs>
  <rect class="uuid-559c8128-e4bf-48a1-9d97-c750c09c1ad2" width="5000" height="5000"/>
  <g>
    <path class="uuid-5dddadf3-c6bc-466d-9d1f-1a6ac9e831da" d="m3646.6,3775.78H1353.4c-217.7,0-353.76-235.67-244.91-424.2l1146.6-1985.96c108.85-188.53,380.98-188.53,489.83,0l1146.6,1985.96c108.85,188.53-27.21,424.2-244.91,424.2Zm-2223.34-239.79h2153.49c64.15,0,104.25-69.45,72.17-125.01l-1076.75-1864.98c-32.08-55.56-112.27-55.56-144.35,0l-1076.75,1864.98c-32.08,55.56,8.02,125.01,72.17,125.01Z"/>
    <g>
      <path class="uuid-5dddadf3-c6bc-466d-9d1f-1a6ac9e831da" d="m2626.43,2763.32l31.65-538.08c5.35-90.96-66.97-167.66-158.08-167.66h0c-91.11,0-163.43,76.7-158.08,167.66l31.65,538.08c3.94,66.94,59.37,119.21,126.43,119.21h0c67.06,0,122.49-52.27,126.43-119.21Z"/>
      <circle class="uuid-5dddadf3-c6bc-466d-9d1f-1a6ac9e831da" cx="2500" cy="3161.95" r="162.99" transform="translate(-1503.6 2693.88) rotate(-45)"/>
    </g>
  </g>
</svg>